HIERARCHY
ROOT hip
{
	OFFSET 0.000000 0.000000 0.000000 
	CHANNELS 6 Xposition Yposition Zposition Xrotation Zrotation Yrotation
	JOINT abdomen
	{
		OFFSET 0.000000 3.402643 0.000000 
		CHANNELS 3 Xrotation Zrotation Yrotation
		JOINT chest
		{
			OFFSET 0.000000 8.438565 -0.680529 
			CHANNELS 3 Xrotation Zrotation Yrotation
			JOINT neck
			{
				OFFSET 0.000000 10.207942 -0.272212 
				CHANNELS 3 Xrotation Zrotation Yrotation
				JOINT head
				{
					OFFSET 0.000000 3.130431 0.000000 
					CHANNELS 3 Xrotation Zrotation Yrotation
					End Site
					{
						OFFSET 0.000000 3.130435 0.000000 
					}
				}
			}
			JOINT lCollar
			{
				OFFSET 3.470700 6.669187 -0.816635 
				CHANNELS 3 Yrotation Zrotation Xrotation
				JOINT lShldr
				{
					OFFSET 3.198488 0.000000 0.000000 
					CHANNELS 3 Zrotation Yrotation Xrotation
					JOINT lForeArm
					{
						OFFSET 10.139888 0.000000 0.000000 
						CHANNELS 3 Yrotation Zrotation Xrotation
						JOINT lHand
						{
							OFFSET 8.370511 0.000000 0.000000 
							CHANNELS 3 Zrotation Yrotation Xrotation
							End Site
							{
								OFFSET 4.083176 0.000000 0.000000 
							}
						}
					}
				}
			}
			JOINT rCollar
			{
				OFFSET -3.470700 6.669187 -0.816635 
				CHANNELS 3 Yrotation Zrotation Xrotation
				JOINT rShldr
				{
					OFFSET -3.198488 0.000000 0.000000 
					CHANNELS 3 Zrotation Yrotation Xrotation
					JOINT rForeArm
					{
						OFFSET -10.139888 0.000000 0.000000 
						CHANNELS 3 Yrotation Zrotation Xrotation
						JOINT rHand
						{
							OFFSET -8.370511 0.000000 0.000000 
							CHANNELS 3 Zrotation Yrotation Xrotation
							End Site
							{
								OFFSET -4.083176 0.000000 0.000000 
							}
						}
					}
				}
			}
		}
	}
	JOINT lThigh
	{
		OFFSET 5.308129 -1.633274 1.361059 
		CHANNELS 3 Xrotation Zrotation Yrotation
		JOINT lShin
		{
			OFFSET -2.041588 -20.007561 0.000000 
			CHANNELS 3 Xrotation Zrotation Yrotation
			JOINT lFoot
			{
				OFFSET 0.000000 -19.190928 -1.224953 
				CHANNELS 3 Xrotation Yrotation Zrotation
				End Site
				{
					OFFSET 0.000000 -2.449906 4.627600 
				}
			}
		}
	}
	JOINT rThigh
	{
		OFFSET -5.308129 -1.633274 1.361059 
		CHANNELS 3 Xrotation Zrotation Yrotation
		JOINT rShin
		{
			OFFSET 2.041588 -20.007561 0.000000 
			CHANNELS 3 Xrotation Zrotation Yrotation
			JOINT rFoot
			{
				OFFSET 0.000000 -19.190928 -1.224953 
				CHANNELS 3 Xrotation Yrotation Zrotation
				End Site
				{
					OFFSET 0.000000 -2.449906 4.627600 
				}
			}
		}
	}
}
MOTION
Frames: 18
Frame Time: 0.016667
2.334484 48.309624 -3.627673 12.137049 0.569094 -19.961946 -0.086489 -20.136778 7.863547 0.000000 0.000000 0.000000 -27.778214 -2.917232 17.386286 0.000000 0.000000 0.000000 0.000000 0.000000 0.000000 39.555756 -93.570396 -55.765511 2.977782 4.444784 -18.822613 -2.499977 22.658400 -120.730026 0.000000 0.000000 0.000000 -38.338737 101.873573 -64.830605 -1.423428 -1.673988 -24.120581 -10.327350 -43.428486 -123.602150 -14.521740 -2.294302 3.683898 -2.792499 0.575952 8.698064 3.249938 12.037699 6.471239 -50.114258 -23.190924 -15.411318 38.844082 2.424142 -14.425969 1.869162 -3.156293 3.357157 
2.989474 48.337612 -3.314173 11.423723 0.342297 -13.183821 0.528748 -18.986387 7.311251 0.000000 0.000000 0.000000 -26.375795 -2.303430 16.507513 0.000000 0.000000 0.000000 0.000000 0.000000 0.000000 -94.837006 -81.897202 79.771736 1.717084 5.347068 -17.932381 -0.797424 21.302479 -113.405472 0.000000 0.000000 0.000000 -59.738453 104.993057 -85.445816 -0.650631 -2.419334 -23.126560 -13.841079 -41.099873 -114.212547 -13.213105 -1.942856 3.829809 -2.651278 0.486807 8.324981 3.549941 11.048473 5.256040 -47.235806 -22.294781 -16.213867 37.601055 1.130900 -13.206659 1.621499 -2.804235 3.481086 
3.627695 48.662319 -3.896411 10.203572 0.048805 -1.767578 1.515363 -16.979031 6.421320 0.000000 0.000000 0.000000 -24.171669 -1.166791 15.520840 0.000000 0.000000 0.000000 0.000000 0.000000 0.000000 -79.607262 -71.629509 66.351578 -1.133131 7.430494 -16.345993 1.841403 18.403698 -100.644241 0.000000 0.000000 0.000000 99.579414 67.031441 75.003838 1.183673 -4.221292 -21.481899 -18.506653 -36.090137 -99.105530 -11.373869 -1.327636 4.505200 -1.942317 0.556557 7.701527 3.855760 9.221022 3.678257 -43.061111 -20.180944 -16.590040 36.070347 -1.143265 -11.638410 1.650556 -2.230798 3.969953 
4.265879 48.987011 -4.478613 8.945313 0.000000 9.658202 2.455147 -14.951798 5.568514 0.000000 0.000000 0.000000 -21.992186 0.000000 14.589844 0.000000 0.000000 0.000000 0.000000 0.000000 0.000000 -74.649490 -61.055546 63.261505 -4.043409 9.430965 -14.644233 3.709155 15.033550 -88.242912 0.000000 0.000000 0.000000 89.694084 57.758736 66.297218 3.072963 -5.977877 -19.772476 -21.238573 -30.339960 -85.409798 -9.521586 -0.732246 5.221958 -1.214423 0.642425 7.068051 4.097122 7.384314 2.113953 -38.954243 -18.056005 -16.786552 34.476078 -3.389257 -10.002816 1.666931 -1.638138 4.475443 
3.952360 49.110180 -5.710293 7.687874 0.126788 21.972733 3.709048 -12.499918 4.601077 0.000000 0.000000 0.000000 -19.874449 1.306476 14.203022 0.000000 0.000000 0.000000 0.000000 0.000000 0.000000 -71.127846 -49.276054 62.029251 -8.465827 12.278259 -12.661235 4.585367 10.966094 -74.609489 0.000000 0.000000 0.000000 82.441925 46.492355 60.001667 6.139629 -8.718777 -17.715397 -22.228443 -23.366917 -71.306297 -7.702556 0.126796 6.225836 0.099479 0.326677 6.676888 4.066034 5.630493 0.323875 -35.775433 -15.649939 -15.954677 34.118671 -5.560895 -8.640103 1.811509 -0.667558 5.448389 
3.638786 49.233345 -6.941921 6.490233 0.524578 34.269253 4.903578 -10.028428 3.687769 0.000000 0.000000 0.000000 -17.767288 2.635771 13.872557 0.000000 0.000000 0.000000 0.000000 0.000000 0.000000 -68.551071 -37.476982 61.925446 -13.033664 14.961001 -10.442903 4.466057 6.813086 -61.194969 0.000000 0.000000 0.000000 77.863846 34.895935 56.468422 9.333626 -11.340803 -15.488417 -21.384357 -16.389799 -57.951729 -5.876533 0.966227 7.259799 1.433242 0.009608 6.268090 3.998700 3.891040 -1.471202 -32.604477 -13.318229 -15.035961 33.695557 -7.743560 -7.214849 1.944790 0.305011 6.418328 
2.205615 49.317314 -8.128766 5.747429 0.902773 43.766647 6.524656 -7.669105 2.403190 0.000000 0.000000 0.000000 -16.900517 3.428329 14.753921 0.000000 0.000000 0.000000 0.000000 0.000000 0.000000 -66.600182 -28.222792 61.984814 -18.048706 17.869738 -8.762959 4.071235 3.261538 -49.772686 0.000000 0.000000 0.000000 74.679306 25.134163 53.423851 13.225656 -14.514866 -13.985171 -19.551140 -10.510608 -46.749611 -5.756662 1.784525 7.275873 4.256073 -1.093896 6.896710 3.259376 2.709989 -2.438709 -32.038094 -12.185791 -13.577529 35.942211 -9.549926 -5.863327 3.578964 2.494533 8.325685 
0.772570 49.401257 -9.315578 5.081008 1.402648 53.255581 8.082086 -5.291802 1.205959 0.000000 0.000000 0.000000 -16.009167 4.213628 15.639295 0.000000 0.000000 0.000000 0.000000 0.000000 0.000000 -64.782158 -18.976698 62.382862 -23.243721 20.617033 -6.799952 2.978970 -0.147180 -38.343113 0.000000 0.000000 0.000000 72.218727 15.269687 51.125984 17.272852 -17.588289 -12.225064 -16.629070 -5.084145 -35.524071 -5.641135 2.595436 7.274317 7.065238 -2.236059 7.517484 2.487822 1.550685 -3.418047 -31.427849 -11.059960 -12.133405 38.160210 -11.424898 -4.564857 5.140693 4.761235 10.168742 
0.878938 49.098953 -10.093743 4.972432 1.833246 58.006153 9.497324 -3.974465 0.489138 0.000000 0.000000 0.000000 -16.279039 4.383601 16.877743 0.000000 0.000000 0.000000 0.000000 0.000000 0.000000 -63.350727 -13.801059 63.036221 -28.224085 23.956245 -5.306814 1.444190 -1.507839 -31.628424 0.000000 0.000000 0.000000 70.949677 8.593959 48.802685 20.969191 -20.776587 -11.925157 -14.170698 -1.987733 -28.516443 -6.468192 3.071733 8.549294 10.686683 -3.320471 7.132084 1.017528 1.563458 -3.670513 -34.558540 -11.541900 -10.879262 42.968582 -12.758488 -2.742157 7.511407 7.675916 11.325974 
0.985303 48.796650 -10.871827 4.898704 2.271228 62.753437 10.897700 -2.646469 -0.195555 0.000000 0.000000 0.000000 -16.525169 4.567544 18.116301 0.000000 0.000000 0.000000 0.000000 0.000000 0.000000 -61.877544 -8.648499 63.805325 -33.444901 27.152004 -3.447922 -0.236168 -2.693064 -24.869307 0.000000 0.000000 0.000000 69.953964 1.877992 46.645092 24.783148 -23.946678 -11.383461 -11.355035 0.791802 -21.394867 -7.284873 3.564454 9.836490 14.315228 -4.386984 6.649598 -0.457020 1.594419 -3.928434 -37.703278 -11.933056 -9.582567 47.785927 -14.216757 -1.075219 9.828686 10.645648 12.371030 
1.069278 48.572712 -10.838238 5.260608 2.285136 64.333054 12.500019 -1.629426 -2.403593 0.000000 0.000000 0.000000 -17.755928 4.087746 20.915213 0.000000 0.000000 0.000000 0.000000 0.000000 0.000000 -61.035698 -7.163548 63.553604 -36.037273 29.727713 -3.783681 -0.424424 -4.162006 -21.358274 0.000000 0.000000 0.000000 69.671349 -0.781574 45.353935 27.786716 -26.556005 -11.087612 -10.204825 1.691305 -19.421598 -8.801702 3.745116 11.196858 17.688488 -4.972914 5.533378 -1.845470 2.399452 -3.901617 -41.383686 -12.732966 -9.179455 52.087990 -15.116632 1.258725 12.667099 12.460601 13.193101 
1.153228 48.348755 -10.804643 5.606831 2.281863 65.912300 14.057435 -0.545121 -4.590100 0.000000 0.000000 0.000000 -18.991774 3.675476 23.724129 0.000000 0.000000 0.000000 0.000000 0.000000 0.000000 -60.200741 -5.682367 63.321579 -38.686092 32.312778 -3.985565 -0.708806 -5.616110 -17.836733 0.000000 0.000000 0.000000 69.446991 -3.440747 44.067883 30.887638 -29.141951 -10.631233 -9.030701 2.555289 -17.428545 -10.333833 3.968880 12.569342 21.079298 -5.498327 4.341570 -3.230278 3.238967 -3.829905 -45.086788 -13.515212 -8.730059 56.362148 -16.189529 3.520584 15.473948 14.310673 13.925346 
1.035663 47.912094 -10.715068 6.050964 2.107188 65.740265 14.679214 0.067855 -6.962885 0.000000 0.000000 0.000000 -19.316053 2.261403 26.624302 0.000000 0.000000 0.000000 0.000000 0.000000 0.000000 -59.338417 -5.606123 61.341587 -40.300621 34.276604 -4.958466 0.553003 -6.590267 -16.945574 0.000000 0.000000 0.000000 70.451439 -5.086464 41.997437 32.077442 -31.890331 -13.174546 -8.089458 2.531671 -16.974739 -12.002131 4.638984 14.243245 24.272154 -6.162565 3.427871 -4.910186 3.068001 -3.589758 -49.197556 -14.237856 -7.934349 61.104744 -17.730900 4.763713 15.980442 16.048157 14.037191 
0.918117 47.475441 -10.625471 6.486090 1.930829 65.560036 15.276674 0.693830 -9.326782 0.000000 0.000000 0.000000 -19.704453 0.866761 29.525307 0.000000 0.000000 0.000000 0.000000 0.000000 0.000000 -58.469563 -5.489408 59.362610 -41.914032 36.269226 -5.891063 1.798915 -7.592766 -16.081453 0.000000 0.000000 0.000000 71.521935 -6.690389 39.905003 33.166389 -34.686398 -15.729326 -7.154390 2.512739 -16.527899 -13.661380 5.360984 15.911879 27.439154 -6.771209 2.449905 -6.603388 2.909790 -3.356442 -53.317390 -14.911346 -7.091127 65.853348 -19.352806 5.896723 16.465965 17.771509 14.135292 
0.929313 47.161934 -10.379147 6.751559 1.843425 65.122665 15.198542 1.136867 -11.965152 0.000000 0.000000 0.000000 -19.743687 -0.891234 32.328491 0.000000 0.000000 0.000000 0.000000 0.000000 0.000000 -59.076015 -4.109221 53.321404 -43.148418 36.458950 -6.352320 3.097822 -7.156385 -17.622028 0.000000 0.000000 0.000000 73.033356 -8.277033 37.558628 32.400291 -38.227882 -21.063889 -5.847389 1.235101 -16.658621 -14.644969 5.202528 16.120468 28.954063 -6.469522 2.366417 -7.262634 3.180259 -3.417043 -55.231838 -14.462533 -4.189772 69.217339 -19.091236 4.489513 14.247441 17.835728 12.745351 
0.940505 46.848476 -10.132855 7.017681 1.756209 64.685860 15.099092 1.568737 -14.604977 0.000000 0.000000 0.000000 -19.873312 -2.652203 35.140831 0.000000 0.000000 0.000000 0.000000 0.000000 0.000000 -59.820457 -2.810088 47.273308 -44.383167 36.656517 -6.824785 4.374881 -6.689444 -19.158216 0.000000 0.000000 0.000000 74.621620 -9.798558 35.158058 31.160084 -41.695004 -26.743572 -4.545510 -0.046954 -16.823870 -15.642138 5.047344 16.332071 30.476355 -6.157105 2.282320 -7.942115 3.448487 -3.474832 -57.133759 -13.915281 -1.278412 72.565552 -18.719826 3.064175 12.030314 18.008966 11.319921 
0.918112 46.859676 -10.093664 7.185210 1.842745 64.769913 14.399655 1.138292 -15.569464 0.000000 0.000000 0.000000 -19.781931 -3.437952 36.021816 0.000000 0.000000 0.000000 0.000000 0.000000 0.000000 -61.067764 -1.366000 43.905594 -44.406628 36.935902 -9.231056 4.729540 -5.490287 -21.164570 0.000000 0.000000 0.000000 75.243591 -11.209387 33.541348 30.650354 -44.621761 -29.573465 -4.587972 -1.659312 -17.199585 -15.461983 4.780414 16.432892 30.410130 -6.089457 2.335399 -7.692393 3.419149 -3.568398 -55.861656 -13.436433 0.743790 72.044563 -18.054735 2.264626 10.006229 17.575819 10.949594 
0.895738 46.870888 -10.054407 7.361846 1.932877 64.854568 13.707700 0.702174 -16.524673 0.000000 0.000000 0.000000 -19.702055 -4.229523 36.894035 0.000000 0.000000 0.000000 0.000000 0.000000 0.000000 -62.397533 0.001694 40.500824 -44.429615 37.217472 -11.645993 5.049896 -4.277021 -23.175108 0.000000 0.000000 0.000000 75.913834 -12.603031 31.900406 29.888252 -47.525970 -32.609703 -4.617856 -3.266401 -17.581255 -15.263372 4.502141 16.524845 30.318575 -5.990586 2.368989 -7.434412 3.390047 -3.693362 -54.573059 -13.006419 2.749404 71.517044 -17.439255 1.489920 7.964979 17.152760 10.564500 
